<svg width="27" height="26" viewBox="0 0 27 26" fill="none" xmlns="http://www.w3.org/2000/svg">
<mask id="mask0_991_2043" style="mask-type:alpha" maskUnits="userSpaceOnUse" x="0" y="0" width="27" height="26">
<rect x="0.401978" width="25.8971" height="25.8971" fill="#D9D9D9"/>
</mask>
<g mask="url(#mask0_991_2043)">
<path d="M5.86657 23.1996C5.40279 23.1996 5.00556 23.0342 4.67487 22.7035C4.34418 22.3728 4.17883 21.9756 4.17883 21.5118V6.28071C4.17883 5.81694 4.34418 5.4197 4.67487 5.08901C5.00556 4.75834 5.40279 4.593 5.86657 4.593H7.69267V3.30087C7.69267 3.09587 7.76134 2.92335 7.89868 2.78331C8.03601 2.64326 8.20738 2.57324 8.41279 2.57324C8.62332 2.57324 8.79916 2.64326 8.94034 2.78331C9.08153 2.92335 9.15213 3.09587 9.15213 3.30087V4.593H17.5908V3.28207C17.5908 3.07807 17.6582 2.90893 17.793 2.77465C17.9278 2.64038 18.0951 2.57324 18.295 2.57324C18.5 2.57324 18.6713 2.6409 18.8091 2.77621C18.9468 2.91152 19.0156 3.0795 19.0156 3.28013V4.593H20.8348C21.2986 4.593 21.6958 4.75834 22.0265 5.08901C22.3572 5.4197 22.5226 5.81694 22.5226 6.28071V21.5118C22.5226 21.9756 22.3572 22.3728 22.0265 22.7035C21.6958 23.0342 21.2986 23.1996 20.8348 23.1996H5.86657ZM5.86657 21.8439H20.8348C20.9178 21.8439 20.9939 21.8093 21.0631 21.7401C21.1323 21.6709 21.1669 21.5948 21.1669 21.5118V10.9912H5.53452V21.5118C5.53452 21.5948 5.56911 21.6709 5.6383 21.7401C5.70746 21.8093 5.78355 21.8439 5.86657 21.8439ZM5.53452 9.63549H21.1669V6.28071C21.1669 6.19771 21.1323 6.12162 21.0631 6.05244C20.9939 5.98327 20.9178 5.94869 20.8348 5.94869H5.86657C5.78355 5.94869 5.70746 5.98327 5.6383 6.05244C5.56911 6.12162 5.53452 6.19771 5.53452 6.28071V9.63549ZM13.3507 15.1897C13.0865 15.1897 12.8613 15.0967 12.6753 14.9107C12.4892 14.7246 12.3962 14.4994 12.3962 14.2352C12.3962 13.971 12.4892 13.7459 12.6753 13.5598C12.8613 13.3737 13.0865 13.2807 13.3507 13.2807C13.6149 13.2807 13.8401 13.3737 14.0261 13.5598C14.2122 13.7459 14.3052 13.971 14.3052 14.2352C14.3052 14.4994 14.2122 14.7246 14.0261 14.9107C13.8401 15.0967 13.6149 15.1897 13.3507 15.1897ZM9.03451 15.1897C8.77029 15.1897 8.54515 15.0967 8.35908 14.9107C8.17302 14.7246 8.07999 14.4994 8.07999 14.2352C8.07999 13.971 8.17302 13.7459 8.35908 13.5598C8.54515 13.3737 8.77029 13.2807 9.03451 13.2807C9.29874 13.2807 9.52388 13.3737 9.70994 13.5598C9.89601 13.7459 9.98904 13.971 9.98904 14.2352C9.98904 14.4994 9.89601 14.7246 9.70994 14.9107C9.52388 15.0967 9.29874 15.1897 9.03451 15.1897ZM17.6669 15.1897C17.4027 15.1897 17.1775 15.0967 16.9915 14.9107C16.8054 14.7246 16.7124 14.4994 16.7124 14.2352C16.7124 13.971 16.8054 13.7459 16.9915 13.5598C17.1775 13.3737 17.4027 13.2807 17.6669 13.2807C17.9311 13.2807 18.1562 13.3737 18.3423 13.5598C18.5284 13.7459 18.6214 13.971 18.6214 14.2352C18.6214 14.4994 18.5284 14.7246 18.3423 14.9107C18.1562 15.0967 17.9311 15.1897 17.6669 15.1897ZM13.3507 19.4229C13.0865 19.4229 12.8613 19.3299 12.6753 19.1438C12.4892 18.9578 12.3962 18.7326 12.3962 18.4684C12.3962 18.2042 12.4892 17.979 12.6753 17.793C12.8613 17.6069 13.0865 17.5138 13.3507 17.5138C13.6149 17.5138 13.8401 17.6069 14.0261 17.793C14.2122 17.979 14.3052 18.2042 14.3052 18.4684C14.3052 18.7326 14.2122 18.9578 14.0261 19.1438C13.8401 19.3299 13.6149 19.4229 13.3507 19.4229ZM9.03451 19.4229C8.77029 19.4229 8.54515 19.3299 8.35908 19.1438C8.17302 18.9578 8.07999 18.7326 8.07999 18.4684C8.07999 18.2042 8.17302 17.979 8.35908 17.793C8.54515 17.6069 8.77029 17.5138 9.03451 17.5138C9.29874 17.5138 9.52388 17.6069 9.70994 17.793C9.89601 17.979 9.98904 18.2042 9.98904 18.4684C9.98904 18.7326 9.89601 18.9578 9.70994 19.1438C9.52388 19.3299 9.29874 19.4229 9.03451 19.4229ZM17.6669 19.4229C17.4027 19.4229 17.1775 19.3299 16.9915 19.1438C16.8054 18.9578 16.7124 18.7326 16.7124 18.4684C16.7124 18.2042 16.8054 17.979 16.9915 17.793C17.1775 17.6069 17.4027 17.5138 17.6669 17.5138C17.9311 17.5138 18.1562 17.6069 18.3423 17.793C18.5284 17.979 18.6214 18.2042 18.6214 18.4684C18.6214 18.7326 18.5284 18.9578 18.3423 19.1438C18.1562 19.3299 17.9311 19.4229 17.6669 19.4229Z" fill="#C9D7FE"/>
</g>
</svg>
