<svg width="27" height="26" viewBox="0 0 27 26" fill="none" xmlns="http://www.w3.org/2000/svg">
<mask id="mask0_991_2046" style="mask-type:alpha" maskUnits="userSpaceOnUse" x="0" y="0" width="27" height="26">
<rect x="0.299072" width="25.8971" height="25.8971" fill="#D9D9D9"/>
</mask>
<g mask="url(#mask0_991_2046)">
<path d="M6.51035 20.7645H10.5153V15.0649C10.5153 14.8258 10.5962 14.6254 10.7579 14.4637C10.9197 14.3019 11.1201 14.2211 11.3592 14.2211H15.1358C15.3749 14.2211 15.5753 14.3019 15.737 14.4637C15.8988 14.6254 15.9797 14.8258 15.9797 15.0649V20.7645H19.9846V10.8225C19.9846 10.7672 19.9725 10.717 19.9483 10.6721C19.9241 10.6271 19.8912 10.5873 19.8497 10.5527L13.4446 5.73742C13.3893 5.69361 13.3236 5.6717 13.2475 5.6717C13.1714 5.6717 13.1057 5.69361 13.0503 5.73742L6.64526 10.5527C6.60375 10.5873 6.57089 10.6271 6.54669 10.6721C6.52246 10.717 6.51035 10.7672 6.51035 10.8225V20.7645ZM5.15466 20.7645V10.8248C5.15466 10.5545 5.21332 10.3009 5.33063 10.064C5.44792 9.82708 5.61522 9.6311 5.83252 9.47604L12.2376 4.64801C12.5285 4.42206 12.8636 4.30908 13.2429 4.30908C13.6223 4.30908 13.9604 4.42206 14.2574 4.64801L20.6624 9.47604C20.8797 9.6311 21.047 9.82708 21.1643 10.064C21.2816 10.3009 21.3403 10.5545 21.3403 10.8248V20.7645C21.3403 21.1335 21.2066 21.4517 20.9392 21.7191C20.6718 21.9865 20.3536 22.1202 19.9846 22.1202H15.4678C15.2287 22.1202 15.0283 22.0393 14.8666 21.8776C14.7048 21.7158 14.624 21.5154 14.624 21.2763V15.5768H11.871V21.2763C11.871 21.5154 11.7901 21.7158 11.6284 21.8776C11.4666 22.0393 11.2662 22.1202 11.0271 22.1202H6.51035C6.14135 22.1202 5.82316 21.9865 5.55577 21.7191C5.28837 21.4517 5.15466 21.1335 5.15466 20.7645Z" fill="#C9D7FE"/>
</g>
</svg>
