<svg width="27" height="26" viewBox="0 0 27 26" fill="none" xmlns="http://www.w3.org/2000/svg">
<mask id="mask0_991_2052" style="mask-type:alpha" maskUnits="userSpaceOnUse" x="0" y="0" width="27" height="26">
<rect x="0.897095" width="25.8971" height="25.8971" fill="#D9D9D9"/>
</mask>
<g mask="url(#mask0_991_2052)">
<path d="M13.8438 23.4071C13.3069 23.4071 12.8479 23.2161 12.4667 22.8341C12.0856 22.4521 11.8951 21.9929 11.8951 21.4565H15.7962C15.7962 21.9947 15.605 22.4543 15.2227 22.8354C14.8403 23.2165 14.3807 23.4071 13.8438 23.4071ZM6.43066 20.3775C6.23861 20.3775 6.07763 20.3122 5.94771 20.1815C5.81777 20.0509 5.75281 19.8891 5.75281 19.696C5.75281 19.5029 5.81777 19.3423 5.94771 19.2141C6.07763 19.0859 6.23861 19.0218 6.43066 19.0218H7.7034V10.6564C7.7034 9.19863 8.14827 7.90237 9.03802 6.76759C9.92776 5.63281 11.0807 4.92201 12.4968 4.63518V4.04656C12.4968 3.6719 12.6279 3.35344 12.8899 3.09118C13.1519 2.8289 13.4701 2.69775 13.8444 2.69775C14.2014 2.69775 14.5053 2.81551 14.7561 3.05103C15.0068 3.28655 15.1492 3.57459 15.1833 3.91514V3.9594C14.9943 4.25959 14.8393 4.57315 14.7185 4.90009C14.5977 5.22702 14.5122 5.56825 14.4619 5.92378C14.3585 5.90164 14.2581 5.88712 14.1608 5.88021C14.0634 5.87329 13.9584 5.86983 13.8456 5.86983C12.5208 5.86983 11.3918 6.33638 10.4587 7.26948C9.52563 8.20259 9.05909 9.33155 9.05909 10.6564V19.0218H18.6322V11.9215C18.8531 11.964 19.0774 11.9948 19.3052 12.0142C19.533 12.0336 19.7605 12.0324 19.9879 12.0108V19.0218H21.2606C21.4526 19.0218 21.6136 19.0871 21.7435 19.2177C21.8735 19.3483 21.9384 19.5102 21.9384 19.7033C21.9384 19.8964 21.8735 20.057 21.7435 20.1852C21.6136 20.3134 21.4526 20.3775 21.2606 20.3775H6.43066ZM19.5065 9.66659C18.7184 9.66659 18.0489 9.39075 17.4981 8.83907C16.9473 8.28737 16.6719 7.61746 16.6719 6.82934C16.6719 6.04122 16.9477 5.37176 17.4994 4.82094C18.0511 4.27012 18.721 3.99471 19.5091 3.99471C20.2972 3.99471 20.9667 4.27055 21.5175 4.82223C22.0683 5.37392 22.3437 6.04382 22.3437 6.83196C22.3437 7.62008 22.0679 8.28954 21.5162 8.84036C20.9645 9.39118 20.2946 9.66659 19.5065 9.66659Z" fill="#C9D7FE"/>
</g>
</svg>
