<svg width="24" height="24" viewBox="0 0 24 24" fill="none" xmlns="http://www.w3.org/2000/svg">
<g id="person">
<mask id="mask0_1273_1575" style="mask-type:alpha" maskUnits="userSpaceOnUse" x="0" y="0" width="24" height="24">
<rect id="Bounding box" width="24" height="24" fill="#D9D9D9"/>
</mask>
<g mask="url(#mask0_1273_1575)">
<path id="person_2" d="M12 11.6821C11.0375 11.6821 10.2338 11.3597 9.58903 10.7149C8.94421 10.0701 8.6218 9.26536 8.6218 8.30073C8.6218 7.33611 8.94421 6.53246 9.58903 5.88978C10.2338 5.24711 11.0375 4.92578 12 4.92578C12.9625 4.92578 13.7661 5.24711 14.4109 5.88978C15.0557 6.53246 15.3781 7.33611 15.3781 8.30073C15.3781 9.26536 15.0557 10.0701 14.4109 10.7149C13.7661 11.3597 12.9625 11.6821 12 11.6821ZM4.5 18.0321V17.3014C4.5 16.78 4.63921 16.3169 4.91762 15.912C5.19604 15.507 5.56111 15.1958 6.01283 14.9783C7.04401 14.5048 8.05281 14.1486 9.03923 13.9097C10.0256 13.6708 11.0125 13.5514 11.9998 13.5514C12.9871 13.5514 13.9723 13.6725 14.9554 13.9149C15.9385 14.1572 16.9443 14.5132 17.9727 14.9829C18.4362 15.2 18.8067 15.5103 19.084 15.9139C19.3613 16.3175 19.5 16.78 19.5 17.3014V18.0321C19.5 18.3836 19.3752 18.6841 19.1257 18.9335C18.8763 19.183 18.5758 19.3077 18.2243 19.3077H5.77562C5.42414 19.3077 5.12367 19.183 4.8742 18.9335C4.62473 18.6841 4.5 18.3836 4.5 18.0321ZM5.75637 18.0514H18.2436V17.3014C18.2436 17.0603 18.1691 16.8316 18.0202 16.6151C17.8712 16.3987 17.6748 16.227 17.4307 16.1001C16.488 15.6398 15.5768 15.3094 14.6972 15.1087C13.8176 14.9081 12.9185 14.8078 12 14.8078C11.0814 14.8078 10.1779 14.9081 9.28927 15.1087C8.40069 15.3094 7.49058 15.6398 6.55895 16.1001C6.31493 16.227 6.12017 16.3987 5.97465 16.6151C5.82913 16.8316 5.75637 17.0603 5.75637 17.3014V18.0514ZM12 10.4257C12.5995 10.4257 13.1031 10.222 13.5105 9.81453C13.918 9.40705 14.1218 8.90351 14.1218 8.30393C14.1218 7.70436 13.918 7.20084 13.5105 6.79336C13.1031 6.38589 12.5995 6.18216 12 6.18216C11.4004 6.18216 10.8969 6.38589 10.4894 6.79336C10.0819 7.20084 9.87817 7.70436 9.87817 8.30393C9.87817 8.90351 10.0819 9.40705 10.4894 9.81453C10.8969 10.222 11.4004 10.4257 12 10.4257Z" fill="black"/>
</g>
</g>
</svg>
